<?xml version="1.0" encoding="utf-8"?>
<!-- Generator: Adobe Illustrator 24.3.0, SVG Export Plug-In . SVG Version: 6.00 Build 0)  -->
<svg version="1.1" id="Layer_1" xmlns="http://www.w3.org/2000/svg" xmlns:xlink="http://www.w3.org/1999/xlink" x="0px" y="0px"
	 viewBox="0 0 161.5 54" style="enable-background:new 0 0 161.5 54;" xml:space="preserve">
<path d="M16.5,44.3H5.6L5.4,44C8,42.1,7,39.5,7.1,37.1c0.1-2.1-0.1-4.3,0-6.4c0.1-1.2-0.5-2.2-1.6-2.7c-1.3-0.7-2.4-1.5-3.7-2.3
	s-0.5-1.9-0.3-2.9c0.1-1,0.9-1.7,1.9-1.8c0.2,0,0.8,0.7,0.7,0.8c-1,2.4,1.1,2.4,2.4,3.5C6.8,24.2,7,23,7.1,21.8
	c0-5.5,0.2-11.1-1-16.6c-0.3-1.2,0-1.8,1.3-1.7c2.1,0.1,4.2,0.1,6.2,0c1.2,0,1.5,0.4,1.6,1.6c0,6.4,0.2,12.9,0.2,19.3
	c0,0.5,0,1,0,1.9c1.8-1,3.4-1.8,5-2.8c0.3-0.2,0.4-0.8,0.4-1.2c0-5.8,0-11.7,0-17.5c-0.1-0.9-0.3-1.8-0.6-2.6l9.6-0.8
	c-1.9,5.1-0.7,10.2-1,15.1c-0.1,2,0.5,2.4,2.3,1.5c3.3-1.7,6.8-3.3,10.2-5.1c0.7-0.5,1.7-0.4,2.3,0.2c0.3,0.3,0.7,0.6,1,0.8
	c4,3.3,3.9,3.3,4.1,8.5c0.1,3.7,0.3,7.4,0.4,11.1c0,0.6-0.3,1.2-0.8,1.5c-2.3,1.2-4.6,2.4-6.9,3.4c-0.5,0.1-1,0-1.4-0.3
	c-2.1-1.7-4.2-3.5-6.2-5.3c-0.5-0.5-0.8-1.2-0.8-1.9c-0.2-2.7-0.2-5.4-0.3-8.2c0-1-0.3-1.9-1.6-1.8s-2.3,0.7-2.3,1.9
	c0.1,7.2,0.2,14.5,0.3,21.7c0.2,0.8,0.5,1.7,0.9,2.4c-0.3,0.1-0.6,0.2-0.9,0.2c-2.5,0-5.1,0-7.6,0c-1.1,0-1.6-0.3-1.1-1.5
	c0.2-0.6,0.3-1.1,0.3-1.7c0-5.1,0-10.1,0-15.2c0-1.5-0.4-1.8-1.8-1.3c-3.5,1.3-3.6,1.4-3.6,5.3c0,2.9,0.1,5.8,0.3,8.8
	C15.9,42.5,16.1,43.4,16.5,44.3z M42,15.5c-1.7,0.5-2.8,2.2-2.6,4c0.2,3.8-0.1,7.5,0.1,11.3c0.3,1.8,0.7,3.6,1.3,5.4
	c1.7-1.2,2.6-2.1,2.5-4c-0.2-3,0.1-6.1-0.1-9.1C43.2,20.6,42.5,18.1,42,15.5z"/>
<path d="M118.7,5.9l5.5-3.9c0.1,1.5,0.3,2.6,0.4,4c1.2-0.6,2.3-1.1,3.2-1.7s1.5-0.3,2,0.6c0.6,1.1,1.4,2.2,2.2,3.4l8.3-8.3
	c0.1,2,0.3,3.5,0.4,5.1c0.1,1.2,0.1,2.4,1.9,2.4c0.9,0,1.1,0.7,1.1,1.6s-0.4,1.3-1.1,1.2c-1.2,0-1.4,0.7-1.4,1.6
	c-0.1,4.8-0.1,9.6-0.2,14.4c0,1.8-0.3,3.7-0.2,5.5c0.1,3,0.5,6,0.7,9.1c-0.5-0.1-1-0.3-1.5-0.5c-1.7-0.7-3.9-1.1-4.8-2.4
	s-0.4-3.5-0.4-5.3c0.1-7,0.2-14.1,0.3-21.1c0-0.5,0-1,0-1.9l-7.2,4l-1.9-4.6l-0.7,0.1c0,3.9-0.2,7.8-0.1,11.8c0.1,2.7,0.5,5.3,0.7,8
	c0,0.3-0.3,0.9-0.6,1c-2.1,0.2-4.1,0.3-6.4,0.4c0-0.5,0.1-1,0.3-1.4c0.8-2,1.1-4.1,0.9-6.2c-0.1-4.8-0.1-9.5-0.3-14.3
	C119.8,7.7,119.2,6.9,118.7,5.9z"/>
<path d="M88.5,14.3v15.6L89,30c1.3-0.9,2.6-1.8,3.8-2.9c0.3-0.3,0.3-1,0.3-1.5c0-4.4,0-8.8,0-13.2c0-1.1,0.3-1.6,1.4-1.4
	s2.3,0.2,3.4,0.4c0.4,0.2,0.7,0.6,0.8,1c0.1,3.9,0,7.8,0,11.7c0,0.4-0.1,0.7-0.3,1c-2.6,3.5-5.2,7-7.8,10.4
	c-0.2,0.2-0.4,0.3-0.6,0.4c-1-1.3-2.2-2.6-3.2-4c-0.6-0.8-0.9-0.8-1.6-0.2c-1.5,1.3-3.1,2.5-4.6,3.8c-0.7,0.7-1.3,0.6-1.8-0.1
	c-1.3-1.6-2.8-3.1-4-4.8c-0.4-0.7-0.6-1.4-0.6-2.2c-0.1-4.7,0-9.3,0-14v-4c1.7,0.1,3.6,0.2,5.4,0.4c0.2,0,0.5,1,0.5,1.5
	c0.1,5.6,0.2,11.3,0.3,16.9c0,0.2,0,0.5,0.1,1.2c1.5-2.1,3.8-3,3.6-5.9c-0.1-2.4,0-4.7,0.2-7.1c0-0.3,0.1-0.7,0.3-0.9
	c1.1-0.9,2.3-1.7,3.4-2.5L88.5,14.3z"/>
<path d="M116.1,28.7l-5.6,5.2c-0.7-2.6-2.4-1.5-3.9-1c-0.4,0.1-0.8,0.2-1.1,0.4c-0.9,0.4-1.4,0.1-1.7-0.8c-1.2-3.2-2.4-6.3-3.5-9.4
	c-0.1-0.4-0.1-1.1,0.1-1.2c2-1.4,4-2.7,6.3-4.2c0.1,3,0.3,5.7,0.4,8.3c0.1,0.6,0.3,1.2,0.6,1.7c0.2,0.3,0.6,0.4,1,0.4
	c0.3-0.1,0.4-0.6,0.4-1c0-0.7,0-1.4,0-2.1c0-4.3,0-8.5,0-12.8c-0.1-0.5-0.2-1-0.4-1.5c-0.5,0.1-1,0.3-1.4,0.5c-1.1,1-2.2,2-3.5,3.3
	c-0.8-1.3-1.8-2.8-2.7-4.4c-0.1-0.2,0.2-0.8,0.5-1c1.6-1.1,3.2-2.1,4.9-3.1c0.4-0.2,0.9-0.2,1.3,0.1c2,1.4,3.9,2.8,5.8,4.3
	c0.5,0.5,0.8,1.2,0.9,1.9c0.3,4.6,0.4,9.2,0.7,13.8C115.4,27,115.7,27.9,116.1,28.7z"/>
<path d="M152.4,16.5c-1.4,1.6-1.4,1.5-0.1,3.1c2.2,2.6,4.5,5.3,6.6,8c1.5,1.9,1.2,4.6-0.7,6.1c0,0,0,0-0.1,0
	c-2.4,1.9-4.7,3.8-7.2,5.9l-2.3-3.7c-0.9-1.5-1.8-2.9-2.8-4.4c-0.4-0.6-0.5-1.1,0.2-1.5l3.4-1.8c0.2,0.6,0.5,1.1,0.8,1.7
	c0.6,0.9,1.3,1.8,2,2.6c0.4,0.3,0.9,0.4,1.3,0.2c0.5-0.3,0.7-0.9,0.5-1.5c-0.1-0.1-0.1-0.2-0.2-0.3c-2.4-3.2-4.7-6.5-7.1-9.7
	c-1.4-1.9-1.4-1.9,0.4-3.5c2.1-1.9,4.2-3.8,6.3-5.7c0.8-0.7,1.3-0.9,2,0.2s1.9,2,2.4,3.2c0.7,1.6,1.1,3.2,1.3,4.9
	c0.2,1.3-1.3,1.1-2.1,1.4c-0.2,0.1-1-0.5-1.2-0.9C155.3,19,154.7,17.1,152.4,16.5z"/>
<path d="M69,13.9c0-4.6,0-4.6-4.3-6.3c-0.2-0.1-0.4-0.2-0.6-0.2c-0.4,0.1-1,0.1-1.2,0.4c-0.5,0.8-1,0.7-1.8,0.3s-1.3-0.6-1.9-0.9
	c-0.5-0.5-1.3-0.4-1.8,0.1c-0.1,0.1-0.2,0.2-0.2,0.4c-1.7,2.5-3.5,4.9-5.2,7.4c-0.4,0.6-0.6,1.2-0.6,1.9c0.3,3.9,0.7,7.8,1.1,11.7
	c0,1.2,0.7,2.3,1.9,2.8c1,0.5,2,1.1,2.9,1.8c1,0.7,1.7,0.5,2.4-0.4c1-1.2,2.1-2.3,3.3-3.5c0.1,0.2,0.2,0.4,0.3,0.7
	c-0.1,4.2-0.1,8.3-0.2,12.5c0,0.4-0.1,0.7-0.3,1c-1.4,1.3-2.8,2.6-4.3,4c-0.5-2.5-1-4.7-1.5-7.2c-2,1.3-3.7,2.4-5.3,3.6
	c-0.3,0.3-0.3,0.7-0.2,1.1c1.4,2.6,2.9,5.1,4.4,7.8c0.4-0.3,0.6-0.3,0.7-0.5c3.7-3.1,7.4-6.2,11.2-9.3c0.9-0.7,1.3-1.7,1.3-2.8
	C68.9,31.3,69,22.6,69,13.9z M62.2,27.3c-0.6,0.3-1,0.9-1.6,1.3c-0.4,0.3-1.3,0.7-1.4,0.6c-0.6-0.5-1-1.1-1.1-1.8
	c0-2.6,0.1-5.1,0.3-7.7s0.4-5.3,0.6-8c0-0.3,0.1-0.6,0.2-1.1c1.3,0.9,2.5,1.6,3.7,2.4C63,13.1,63,13.6,63,14
	c0.1,3.6,0.2,7.2,0.3,10.8C63.6,25.8,63.1,26.8,62.2,27.3z"/>
</svg>
